<?xml version="1.0" encoding="UTF-8" standalone="no"?>
<!-- Created with Inkscape (http://www.inkscape.org/) -->

<svg
   xmlns:dc="http://purl.org/dc/elements/1.1/"
   xmlns:cc="http://creativecommons.org/ns#"
   xmlns:rdf="http://www.w3.org/1999/02/22-rdf-syntax-ns#"
   xmlns:svg="http://www.w3.org/2000/svg"
   xmlns="http://www.w3.org/2000/svg"
   xmlns:sodipodi="http://sodipodi.sourceforge.net/DTD/sodipodi-0.dtd"
   xmlns:inkscape="http://www.inkscape.org/namespaces/inkscape"
   id="svg2985"
   version="1.1"
   inkscape:version="0.48.4 r9939"
   width="5506"
   height="3600"
   sodipodi:docname="DeasIsland Boundaries wref.jpg">
  <metadata
     id="metadata2991">
    <rdf:RDF>
      <cc:Work
         rdf:about="">
        <dc:format>image/svg+xml</dc:format>
        <dc:type
           rdf:resource="http://purl.org/dc/dcmitype/StillImage" />
        <dc:title></dc:title>
      </cc:Work>
    </rdf:RDF>
  </metadata>
  <defs
     id="defs2989" />
  <sodipodi:namedview
     pagecolor="#ffffff"
     bordercolor="#666666"
     borderopacity="1"
     objecttolerance="10"
     gridtolerance="10"
     guidetolerance="10"
     inkscape:pageopacity="0"
     inkscape:pageshadow="2"
     inkscape:window-width="1600"
     inkscape:window-height="838"
     id="namedview2987"
     showgrid="false"
     inkscape:zoom="0.069274165"
     inkscape:cx="2356.5637"
     inkscape:cy="1432.287"
     inkscape:window-x="-8"
     inkscape:window-y="-8"
     inkscape:window-maximized="1"
     inkscape:current-layer="svg2985" />
  <path
     style="fill:#000000;stroke:#000000;stroke-width:1px;stroke-linecap:butt;stroke-linejoin:miter;stroke-opacity:1"
     d="m 5043.8618,190.79619 -6.7688,-14.66567 c 0,0 -82.9452,14.41523 -124.4133,21.64831 -43.3452,7.56048 -86.719,14.95993 -130.0262,22.73465 -45.5069,8.16961 -90.9076,16.92233 -136.408,25.12778 -27.1039,4.88786 -54.4984,8.30552 -81.3661,14.35873 -20.0436,4.51577 -39.5402,11.19888 -59.4292,16.353 -19.603,5.07999 -39.4258,9.28474 -59.0303,14.35873 -13.6141,3.52357 -26.864,8.56185 -40.6831,11.1679 -4.9921,0.94141 -10.0778,1.71674 -15.1564,1.59541 -3.4964,-0.0835 -6.9707,-0.77359 -10.3702,-1.59541 -1.6346,-0.39517 -3.4568,-0.56548 -4.7863,-1.59542 -2.1281,-1.64867 -1.9098,-5.72747 -4.3873,-6.78051 -5.1113,-2.17247 -11.0046,1.69423 -16.353,3.19083 -10.3699,2.90175 -20.329,7.13345 -30.3129,11.1679 -7.9476,3.21161 -16.0029,6.2732 -23.5324,10.37019 -15.0939,8.21293 -29.3908,17.92691 -43.0762,28.31861 -13.2081,10.02924 -25.0718,21.71632 -37.4922,32.70599 -10.4354,9.23338 -21.8458,17.51217 -31.1106,27.91976 -6.2789,7.05343 -12.1868,14.65895 -16.353,23.1335 -0.7978,1.62283 -1.9336,3.40867 -1.5954,5.1851 0.4776,2.50884 4.1994,3.49722 4.7862,5.9828 1.3121,5.55794 -1.8684,11.30671 -3.5896,16.75186 -2.8729,9.08853 -6.4625,18.03496 -11.1679,26.32433 -7.5614,13.32064 -17.5118,25.16626 -27.1221,37.09339 -13.7093,17.01426 -28.9814,32.7077 -43.475,49.05899 -11.4323,12.89761 -22.3002,26.31883 -34.3014,38.6888 -15.3905,15.86335 -31.7516,30.77431 -48.2613,45.46931 -8.9517,7.96775 -19.5485,14.186 -27.5209,23.13351 -5.9365,6.66251 -10.4824,14.50298 -14.7576,22.3358 -13.5749,24.87133 -22.5153,52.0092 -34.3014,77.77645 -10.5875,23.14699 -20.5318,46.64839 -32.706,69.00167 -10.623,19.50522 -22.6655,38.23317 -35.0991,56.63721 -20.8704,30.89219 -44.1724,60.07006 -66.2097,90.14092 -9.0541,12.35469 -16.6254,25.93839 -27.1221,37.09339 -8.9941,9.5582 -19.6763,17.439 -30.3128,25.1278 -10.5532,7.6286 -21.3792,15.077 -33.1049,20.7404 -14.3507,6.9313 -29.6759,11.8314 -45.0704,15.9541 -10.5794,2.8332 -21.4557,4.5013 -32.3072,5.9828 -14.9436,2.0402 -30.0596,2.5229 -45.0704,3.9885 -13.7067,1.3383 -27.4497,2.4314 -41.082,4.3874 -9.6286,1.3816 -19.3678,2.5009 -28.7174,5.1851 -12.387,3.5562 -24.3351,8.6658 -35.8968,14.3588 -10.5348,5.1874 -21.0131,10.7788 -30.3129,17.9484 -11.5405,8.8971 -21.1486,20.0768 -31.1106,30.7117 -9.8586,10.5246 -19.4223,21.3563 -28.3186,32.706 -8.9434,11.4098 -16.4484,23.8861 -25.1278,35.498 -12.4686,16.6813 -24.9816,33.3794 -38.6888,49.0589 -3.7749,4.318 -7.7286,8.4989 -11.9656,12.3645 -5.7981,5.2899 -12.2067,9.8693 -18.3472,14.7576 -8.7398,6.9576 -17.5902,13.7757 -26.3244,20.7404 -7.6138,6.0713 -15.5342,11.7909 -22.7346,18.3472 -21.6895,19.7493 -41.6311,41.3688 -61.4235,63.0189 -7.4435,8.1421 -14.604,16.5477 -21.5381,25.1278 -20.6919,25.6036 -40.5148,51.9152 -59.828,78.5741 -28.6023,39.4812 -55.1699,80.3978 -82.9616,120.4538 -8.5993,12.3941 -17.2204,24.7734 -25.9255,37.0934 -5.9398,8.4065 -11.3883,17.1959 -17.9484,25.1278 -7.6113,9.203 -15.5654,18.2666 -24.7289,25.9255 -6.1114,5.1079 -19.9427,13.1621 -19.9427,13.1621 l -5.5839,5.1851 13.561,4.3874 11.1679,-1.9942 c 0,0 14.2102,-12.0979 20.7404,-18.7462 9.6406,-9.815 18.6342,-20.2832 27.122,-31.1105 10.1266,-12.9178 18.9492,-26.8071 28.3186,-40.2842 8.8412,-12.7174 16.1516,-26.6104 26.3244,-38.29 2.7196,-3.1224 6.4832,-5.2283 9.1736,-8.3759 10.9729,-12.838 18.3699,-28.3494 27.9198,-42.2785 18.5451,-27.0493 37.14,-54.0979 57.036,-80.1696 14.2724,-18.7026 28.978,-37.1158 44.6716,-54.6429 12.2921,-13.7281 25.4417,-26.6775 38.6888,-39.4865 15.4239,-14.9138 30.8337,-29.9191 47.4636,-43.4751 11.9557,-9.7458 25.4211,-17.5196 37.4922,-27.122 8.7014,-6.9219 17.4739,-13.872 25.1278,-21.937 9.1909,-9.6845 16.9585,-20.652 24.7289,-31.5094 11.6322,-16.2533 20.7953,-34.2052 32.706,-50.2555 7.872,-10.608 16.1476,-21.0107 25.5267,-30.3129 7.844,-7.7797 15.1466,-16.4361 23.5779,-23.5751 8.9915,-7.6133 18.5983,-14.5877 28.6719,-20.6977 11.7367,-7.1188 25.231,-10.9265 38.2899,-15.1564 13.3137,-4.3125 26.8663,-8.1458 40.6831,-10.3702 16.9738,-2.7326 34.3498,-1.8321 51.4521,-3.5897 16.684,-1.7147 33.4736,-3.1904 49.8567,-6.7805 12.8997,-2.8267 25.605,-6.7249 37.8911,-11.5667 12.1149,-4.7743 24.0181,-10.3113 35.0991,-17.1507 11.3819,-7.0251 21.6297,-15.7714 31.9083,-24.3301 12.0065,-9.9975 24.2594,-19.8864 34.7003,-31.5094 9.3475,-10.4058 16.3649,-22.691 24.7289,-33.90261 9.6992,-13.00131 20.1568,-25.44007 29.5152,-38.68879 15.2969,-21.65593 30.0072,-43.77015 43.475,-66.60855 7.6432,-12.96121 14.1625,-26.55355 21.1392,-39.88536 8.3264,-15.9108 17.2054,-31.55669 24.729,-47.86244 11.4919,-24.90614 19.8565,-51.16652 31.1105,-76.18103 4.196,-9.32647 7.9152,-18.99372 13.5611,-27.5209 4.9439,-7.46686 11.3156,-13.91234 17.5495,-20.34153 7.6638,-7.90387 15.923,-15.22773 24.3301,-22.33581 9.2607,-7.82973 17.1705,-18.63021 28.7175,-22.3358 3.1673,-1.01644 6.8668,-0.79583 9.9713,0.39886 2.9073,1.11881 4.8915,3.86864 7.1794,5.9828 5.8693,5.42356 11.7579,10.91175 16.7518,17.15071 7.9272,9.90364 20.7404,31.90828 20.7404,31.90828 l 17.9484,29.51517 11.9656,14.35873 9.1736,9.57248 7.1794,-9.97134 -14.3587,-11.9656 -13.1622,-18.34727 c 0,0 -13.6352,-24.30869 -20.7404,-36.29568 -6.604,-11.14147 -13.2722,-22.25261 -20.3415,-33.10484 -2.5564,-3.92439 -5.4658,-7.61334 -7.9771,-11.56676 -1.9807,-3.11813 -6.122,-5.91786 -5.5839,-9.57248 1.5622,-10.6094 15.7654,-14.54273 23.5323,-21.93695 4.8348,-4.60282 9.9545,-8.94357 14.3588,-13.95988 9.0877,-10.35041 15.9427,-22.49732 24.7289,-33.10485 5.5223,-6.66709 11.9407,-12.5505 17.5495,-19.14497 5.7039,-6.70629 11.2025,-13.60021 16.353,-20.74039 7.3562,-10.19798 13.7742,-21.04116 20.7404,-31.50943 4.8824,-7.33694 9.7173,-14.70754 14.7576,-21.93695 5.0649,-7.26469 9.8934,-14.72847 15.5553,-21.53809 7.6354,-9.18307 16.081,-17.68893 24.7289,-25.92549 9.419,-8.97093 19.3407,-17.42268 29.5152,-25.52663 9.1522,-7.28963 18.5083,-14.36392 28.3186,-20.74038 9.6371,-6.26391 19.507,-12.27163 29.914,-17.15071 11.046,-5.17866 22.6663,-9.09492 34.3014,-12.76331 9.5647,-3.01561 19.3799,-5.17413 29.1163,-7.57822 14.183,-3.50203 28.4104,-6.82927 42.6774,-9.97134 7.6902,-1.69363 15.4831,-6.65153 23.1335,-4.78624 2.6628,0.64925 3.7178,4.53971 6.3816,5.18509 34.5917,8.38091 69.5707,-15.09668 104.4997,-21.93695 17.5048,-3.42802 35.0816,-6.47948 52.6487,-9.57248 24.1738,-4.25623 48.6316,-7.03331 72.5913,-12.36446 3.9041,-0.86869 8.7731,-0.32867 11.5668,-3.19083 2.6803,-2.74593 0.8142,-7.87963 2.7919,-11.1679 0.9219,-1.53281 2.2002,-3.55783 3.9886,-3.58968 20.6786,-0.36825 46.9167,-13.36744 63.4177,-9.57249 4.9338,1.1347 0.5455,10.71243 3.5897,14.75758 0.6445,0.85647 1.7203,1.61341 2.792,1.59542 18.7008,-0.31388 45.1151,-8.61075 55.8395,-10.76905 5.1644,-1.03934 -7.8315,-14.02085 -2.792,-15.55529 32.7579,-9.97414 109.2179,-19.04398 163.53,-30.31287 13.4575,-2.79223 40.2434,-8.97691 40.2434,-8.97691 z"
     id="path2997"
     inkscape:connector-curvature="0"
     sodipodi:nodetypes="ccsssssssssssssssssssssssssssssssssssssssssssssssssssssssssccccsssssssssssssssssssssssssssssssssssssscccccccsssssssssssssssssssssssssssssssssc" />
  <path
     style="fill:#000000;stroke:#000000;stroke-width:1px;stroke-linecap:butt;stroke-linejoin:miter;stroke-opacity:1"
     d="m 3060.4004,1617.7063 c 1.7103,2.9681 6.933,-1.9022 10.2306,-0.9744 6.2528,1.7593 10.979,7.1164 15.5894,11.6921 3.043,3.02 7.3935,5.9622 7.7947,10.2306 0.5437,5.7843 -6.4369,3.9345 -6.3332,9.7434 0.036,2.0344 -0.1519,9.9651 1.4615,11.2049 83.3292,64.0353 26.9245,18.0853 76.4857,53.1014 1.7444,1.2325 30.9958,18.9012 32.6403,17.5382 4.508,-3.7363 6.697,-5.52 11.205,-9.2563 1.6445,-1.363 12.9688,-4.4871 15.1022,-4.3845 10.5432,0.5068 12.9104,4.0497 23.3842,5.3589 7.09,0.8862 14.4566,1.5328 21.4354,0 6.8128,-1.4964 13.9555,-3.9515 18.9997,-8.7691 7.1432,-6.8224 11.0303,-16.7805 13.6407,-26.3071 2.2781,-8.314 2.6013,-17.2752 1.4615,-25.82 -1.0863,-8.1442 -3.7963,-16.2064 -7.7947,-23.3842 -3.0861,-5.54 -8.4827,-9.4624 -12.1792,-14.6151 -3.4417,-4.7976 -6.5239,-9.8681 -9.2563,-15.1022 -2.6249,-5.0281 -1.8371,-6.6243 -4.3845,-11.6921 -1.176,-2.3395 -7.8242,-11.1468 -10.2306,-12.1792 -28.4415,-12.2027 -44.1044,-41.4415 -72.1011,-47.7427 -5.114,-1.151 -3.5018,3.6946 -8.2819,5.8461 -3.1132,1.4013 -2.4797,-0.114 -5.3588,-1.9487 -7.2943,-4.6482 -13.7081,-10.6013 -19.974,-16.5638 -1.915,-1.8223 -4.2006,-3.4698 -5.3589,-5.846 -2.164,-4.4396 -2.7151,-9.6841 -2.4358,-14.6151 0.2005,-3.541 6.0884,-8.631 2.923,-10.2306 -14.4659,-7.3103 -38.0783,24.6012 -29.7174,38.4864 2.4651,4.0939 9.4363,-3.3443 14.128,-2.4358 6.3711,1.2338 12.0464,5.5714 16.5637,10.2305 4.3044,4.4395 10.5541,10.0307 9.2563,16.0766 -0.7568,3.5253 -7.6116,6.6878 -8.2819,10.2306 -0.5024,2.6556 12.4409,13.4778 14.1279,15.5894 8.3861,10.4966 28.5965,24.594 38.9736,33.1275 18.9245,15.5624 18.0439,13.4364 40.4351,23.3842 4.1394,1.839 8.6533,2.8964 13.1536,3.4102 6.1331,0.7002 12.7788,-2.7743 18.5124,-0.4872 4.0529,1.6166 7.2183,5.398 9.2562,9.2563 4.0906,7.7446 6.1563,17.1562 4.8717,25.82 -1.2358,8.3344 -5.9954,16.2019 -11.692,22.4098 -4.2946,4.6801 -9.9223,8.6585 -16.0766,10.2305 -7.096,1.8125 -14.9805,0.8717 -21.9227,-1.4615 -7.0016,-2.3532 -13.5473,-4.9893 -17.5381,-11.2049 -2.308,-3.5947 0.1314,-12.7074 -3.8973,-14.1279 -34.6042,-12.2006 -66.4982,-50.8738 -98.8955,-62.3578 -5.3919,-1.9112 -8.6659,5.6068 -14.1279,7.3076 -1.5505,0.4828 -3.3714,0.6214 -4.8717,0 -5.7287,-2.3729 -9.7538,-7.9681 -13.1536,-13.1536 -3.1581,-4.8167 -5.8609,-10.3363 -6.3332,-16.0766 -0.3813,-4.6345 7.1771,-11.763 2.923,-13.6407 -12.7798,-5.6409 -31.3329,21.9982 -24.3585,34.1019 z"
     id="path3767"
     inkscape:connector-curvature="0"
     sodipodi:nodetypes="sssssssssssssssssssssssssssssssssssssssssssssssssss" />
  <path
     style="fill:#000000;stroke:#000000;stroke-width:1px;stroke-linecap:butt;stroke-linejoin:miter;stroke-opacity:1"
     d="m 4102.4565,667.23807 c 0,0 25.5502,14.83747 38.9736,20.9483 7.1096,3.23653 15.0664,4.53844 21.9226,8.28189 5.5017,3.00389 15.1023,11.2049 15.1023,11.2049 l 7.7947,-10.71773 c 0,0 -11.751,-7.33848 -18.0253,-10.23057 -10.8232,-4.98891 -22.6926,-7.4107 -33.6147,-12.17924 -5.5246,-2.412 -11.0957,-4.88644 -16.0766,-8.28189 -11.7894,-8.03677 -23.2941,-17.07119 -32.1532,-28.25584 -3.4281,-4.32806 -6.555,-9.23482 -7.7947,-14.6151 -0.9852,-4.2755 -1.1047,-9.06502 0.4872,-13.15358 2.0897,-5.36722 7.0851,-9.12848 11.2049,-13.15358 7.1837,-7.01861 13.7771,-16.07168 23.3841,-18.99962 3.4315,-1.04583 7.14,0.71241 10.7178,0.97433 2.9197,0.21375 6.6901,-1.57405 8.769,0.48717 16.4115,16.27222 37.8838,32.28673 63.8192,57.97321 5.393,5.34116 0.2832,13.80923 2.9231,20.9483 2.1111,5.70909 7.787,9.51458 12.6664,13.15358 4.2501,3.16973 8.9018,6.41392 14.1279,7.30754 6.9496,1.18831 15.9374,2.03677 20.9483,-2.92301 2.3341,-2.3103 2.1246,-6.5269 1.4615,-9.7434 -1.1191,-5.42855 -6.015,-9.31782 -8.769,-14.12792 -3.4648,-6.05163 -4.8306,-13.56353 -9.7434,-18.51245 -3.6341,-3.66081 -8.5512,-6.46879 -13.6408,-7.30755 -3.8985,-0.64247 -11.6921,1.94868 -11.6921,1.94868 2.8244,-0.47074 -46.3056,-28.93734 -56.5117,-50.66565 -0.9591,-2.04195 2.7387,-3.81585 4.3845,-5.35887 1.8543,-1.73851 6.7706,-4.27541 8.7691,-5.84604 4.3485,-3.41758 4.7463,-8.5136 6.8204,-13.64075 1.831,-4.52618 1.9487,-11.69208 1.9487,-11.69208 0,0 1.4556,-10.45535 -0.4872,-15.10226 -1.728,-4.13303 -4.7773,-9.82873 -9.2562,-9.74339 -5.4069,0.10302 -12.1274,6.95831 -10.7178,12.17924 0.6693,2.47887 5.7706,0.37907 7.3076,2.43585 2.8207,3.7746 1.7009,9.57481 0.4872,14.12792 -1.4277,5.35569 -5.2698,9.82946 -8.7691,14.12792 -2.8282,3.4741 -5.583,7.5951 -9.7434,9.25623 -2.2622,0.90323 -4.9259,0.51117 -7.3075,0 -3.4822,-0.7474 -6.3264,-3.38021 -9.7434,-4.38453 -3.1509,-0.92611 -9.7434,-1.46151 -9.7434,-1.46151 l -49.2042,53.10151 z"
     id="path3769"
     inkscape:connector-curvature="0"
     sodipodi:nodetypes="cssccsssssssssssssssssssssssscsssssssssccc" />
  <path
     style="fill:#000000;stroke:#000000;stroke-width:1px;stroke-linecap:butt;stroke-linejoin:miter;stroke-opacity:1"
     d="m 4176.9935,458.24225 -35.5634,-4.8717 c 0,0 -11.4812,-3.68655 -15.5894,-7.79472 -2.5676,-2.56761 -5.2264,-6.1296 -4.8717,-9.74339 0.8027,-8.17865 15.1022,-19.48679 15.1022,-19.48679 l 17.051,-20.46113 c 0,0 7.3747,-10.90571 13.1536,-13.15359 3.4842,-1.35529 7.5321,-0.21064 11.2049,0.48717 4.8939,0.9298 14.1279,4.8717 14.1279,4.8717 l 12.1792,14.61509 3.8974,-5.84603 -12.1793,-13.15359 c 0,0 -4.1316,-6.52669 -4.8717,-10.23056 -0.6372,-3.18881 -0.7132,-6.7212 0.4872,-9.7434 2.6788,-6.74433 14.1279,-16.56377 14.1279,-16.56377 0,0 6.4509,-8.50458 11.2049,-10.23056 3.5141,-1.27582 7.6089,-0.53509 11.2049,0.48717 4.4757,1.27232 12.1793,6.82037 12.1793,6.82037 l 10.7177,13.64076 7.7947,-8.28189 -8.2819,-3.41019 -4.8716,-9.25622 c 0,0 -2.6479,-8.34206 -2.9231,-12.66642 -0.2073,-3.25741 -0.6289,-6.90032 0.9744,-9.74339 2.7919,-4.95066 13.6407,-10.23057 13.6407,-10.23057 l 14.1279,-10.71773 c 0,0 7.604,-6.40407 12.1793,-6.33321 4.6524,0.072 8.8748,3.54452 12.1792,6.82038 3.7191,3.687 5.5301,8.91884 7.7948,13.64075 2.4908,5.19327 6.3332,16.0766 6.3332,16.0766 l 9.7434,-6.3332 -9.2563,-11.69208 -2.4358,-11.69207 c 0,0 -0.4697,-11.05412 1.4615,-16.0766 0.8742,-2.27357 2.3737,-4.47122 4.3845,-5.84604 5.9845,-4.09176 20.9483,-5.84604 20.9483,-5.84604 l 29.7174,-0.48717 c 0,0 0.05,7.50522 -0.4872,11.20491 -0.4811,3.313 -2.5643,6.39811 -2.4358,9.74339 0.1971,5.13144 4.8717,14.61509 4.8717,14.61509 l 4.3845,-2.92301 c 0,0 -1.5248,-7.7649 -1.4615,-11.69208 0.05,-3.12322 0.9503,-6.1747 1.4615,-9.25622 0.6204,-3.73992 1.9487,-11.20491 1.9487,-11.20491 0,0 13.9106,-0.49965 20.4611,1.46151 4.4575,1.33453 7.6509,5.75052 12.1792,6.82038 6.803,1.60728 13.9986,-0.22232 20.9483,-0.97434 6.7151,-0.72664 13.3012,-2.36412 19.974,-3.41019 5.6721,-0.88918 11.3172,-2.73163 17.0509,-2.43585 2.6746,0.13798 5.6599,0.33147 7.7947,1.94868 5.218,3.95285 9.7434,17.05094 9.7434,17.05094 l 21.9227,-5.84604 c 0,0 -7.4473,-6.84535 -11.2049,-10.23056 -4.3585,-3.9265 -7.5883,-9.83698 -13.1536,-11.69207 -7.4204,-2.47345 -15.648,0.79496 -23.3842,1.94867 -6.08,0.90672 -11.937,3.04757 -18.0252,3.89736 -9.9923,1.39471 -20.1754,3.04687 -30.2046,1.94868 -5.2108,-0.57058 -9.9255,-3.56006 -15.1022,-4.38453 -9.6275,-1.53332 -19.4817,-0.89595 -29.2302,-0.97434 -9.4197,-0.0757 -18.9454,-0.9452 -28.2559,0.48717 -9.0395,1.39068 -17.8207,4.38482 -26.3071,7.79472 -10.8501,4.35964 -21.1379,10.08417 -31.1789,16.0766 -12.8411,7.66348 -25.0246,16.41009 -37.0249,25.33283 -5.1897,3.85879 -10.2029,7.95784 -15.1022,12.17924 -8.3583,7.20177 -16.2061,14.97576 -24.3585,22.40981 -8.4106,7.66949 -25.3329,22.89698 -25.3329,22.89698 0,0 -5.9244,3.57067 -9.2562,3.89736 -5.6102,0.55009 -11.0539,-2.21936 -16.5638,-3.41019 -8.6254,-1.86417 -16.9957,-5.77913 -25.82,-5.84604 -6.3059,-0.0478 -12.4555,2.14217 -18.5124,3.89736 -8.4887,2.4599 -24.8457,9.25623 -24.8457,9.25623 0,0 -4.2323,-12.63405 -7.3075,-18.51245 -2.4426,-4.66924 -4.9396,-9.53376 -8.7691,-13.15359 -4.6551,-4.40024 -10.7325,-7.09208 -16.5637,-9.74339 -5.6097,-2.55059 -12.851,-1.84557 -17.5382,-5.84604 -3.4805,-2.97056 -6.3332,-12.17924 -6.3332,-12.17924 l 1.4616,-6.33321 -12.1793,3.89736 c 0,0 5.9707,12.96434 9.7434,18.99962 1.7215,2.75399 2.4202,5.66525 5.846,7.79471 7.2259,4.4916 17.4927,4.60037 23.8714,10.23057 5.9507,5.25242 15.1022,20.46113 15.1022,20.46113 l 17.5381,37.51207 11.6921,25.82 c 0,0 -3.1772,1.08372 -3.8974,2.43585 -2.2916,4.30213 -1.6663,10.24218 0.4872,14.61509 1.58,3.20833 5.2627,4.90363 8.2819,6.82038 2.8823,1.8298 5.8439,4.49498 9.2562,4.38452 3.3421,-0.10819 7.9003,-1.6427 8.7691,-4.87169 3.0462,-11.3221 -18.0253,-30.20453 -18.0253,-30.20453 l -16.0766,-35.07622 -1.9487,-12.17925 c 0,0 13.8239,-5.32378 20.9483,-7.30754 6.075,-1.69156 12.2091,-3.7126 18.5125,-3.89736 6.5654,-0.19244 13.1906,1.05215 19.4868,2.92302 5.9905,1.78004 17.0509,7.79471 17.0509,7.79471 l -31.666,37.02491 -8.2819,1.46151 -12.6664,-0.48717 -9.7434,4.87169 21.4354,36.53773 c 0,0 16.89,0.84317 24.8457,3.41019 8.5727,2.76611 23.8713,12.66642 23.8713,12.66642 z"
     id="path3771"
     inkscape:connector-curvature="0"
     sodipodi:nodetypes="ccssccssccccsscsscccccssccsssccccssccssccsscssssssccssssssssssssscsssscsssscccssscccasssscccsssccccccacc" />
  <path
     style="fill:none;stroke:#000000;stroke-width:1px;stroke-linecap:butt;stroke-linejoin:miter;stroke-opacity:1"
     d="m 2490.7419,3607.2546 c 0,0 55.8714,16.3282 53.7189,-4.6272 -1.1198,-10.9021 -38.5868,-51.3782 -60.2414,-82.5869 -10.0472,-14.48 -14.8649,-30.4594 -26.7154,-43.6642 -11.8505,-13.2048 -22.9339,-26.9079 -30.9489,-42.6043 -2.4098,-4.7194 -10.7773,-17.5549 -10.7773,-17.5549 l -96.7278,-120.9098 -48.3639,-147.51 -14.5092,-38.6911 -120.9098,-215.2194 5.4998,-21.128 -3.7859,-7.2277 -17.2088,-6.1951 -14.1111,-12.3903 -10.3253,-12.0462 -97.4014,-169.3339 -16.5204,-23.4039 -128.033,-206.5049 -97.4015,-151.781 -23.4038,-21.683 -21.683,-7.916 -28.2224,-7.2277 -34.7616,3.7859 -29.2549,9.9811 -23.0597,14.4553 -21.3388,13.767 -32.6966,28.9107 -40.9568,34.4175 8.2602,8.9485 38.8917,-35.1058 52.3146,-41.301 37.1709,-18.5854 38.8917,-4.1301 34.7617,8.2602 19.9621,11.0136 15.4879,16.1762 20.6504,28.9106 51.6262,80.1928 28.5666,45.7752 72.6208,115.9869 50.5937,81.2252 64.0165,103.9408 39.5801,68.4908 20.6505,37.1709 -86.3879,55.7563 7.2277,11.0136 88.1087,-53.3471 36.4826,59.8864 62.9839,110.4801 46.8078,87.0762 16.8646,40.2684 5.5068,25.8131 -3.4418,16.1762 -8.2602,7.5719 -9.981,2.7534 -10.3253,-3.7859 -55.4121,-66.7699 -22.0272,-39.9243 -16.1762,-19.9621 -7.916,-9.2928 -24.0923,-17.8971 -7.2276,-9.6368 -15.1437,-22.3714 -30.6316,-37.5151 -57.133,-70.2116 -26.8456,-35.1058 -86.0437,-105.3175 -98.0898,-120.117 -84.3228,-104.2849 -58.5097,-74.6859 -97.0573,-117.7078 -30.8431,27.8772 124.0741,153.1597 130.3331,163.8368 30.9265,35.3446 115.6062,142.8509 101.2474,128.4923 37.5536,50.0714 112.2927,134.0148 83.5751,97.1976 135.4875,168.623 64.4302,90.5705 z"
     id="path5224"
     inkscape:connector-curvature="0"
     sodipodi:nodetypes="csssscccccccccccccccccccccccccccccccccccccccccccccccccccccccccccccccccccccccccccccc" />
  <path
     sodipodi:nodetypes="csssscccccccccccccsssssssssccsssssssscccccccccccccccccccccccccccccccccccccccccccccc"
     inkscape:connector-curvature="0"
     id="path5226"
     d="m 2490.7419,3607.2546 c 0,0 55.8714,16.3282 53.7189,-4.6272 -1.1198,-10.9021 -38.5868,-51.3782 -60.2414,-82.5869 -10.0472,-14.48 -14.8649,-30.4594 -26.7154,-43.6642 -11.8505,-13.2048 -22.9339,-26.9079 -30.9489,-42.6043 -2.4098,-4.7194 -10.7773,-17.5549 -10.7773,-17.5549 l -96.7278,-120.9098 -48.3639,-147.51 -14.5092,-38.6911 -120.9098,-215.2194 5.4998,-21.128 -3.7859,-7.2277 -17.2088,-6.1951 -14.1111,-12.3903 -10.3253,-12.0462 -97.4014,-169.3339 -16.5204,-23.4039 -128.033,-206.5049 c 0,0 -58.8105,-105.688 -97.4015,-151.781 -6.827,-8.1542 -14.3299,-16.1366 -23.4038,-21.683 -6.565,-4.0128 -14.3332,-5.6394 -21.683,-7.916 -9.2763,-2.8733 -18.5359,-6.5377 -28.2224,-7.2277 -11.6263,-0.8282 -23.3834,1.2578 -34.7616,3.7859 -10.0583,2.2348 -19.952,5.5517 -29.2549,9.9811 -8.1909,3.8999 -15.4047,9.5869 -23.0597,14.4553 -7.1427,4.5426 -14.5924,8.6544 -21.3388,13.767 -11.595,8.787 -21.6773,19.4117 -32.6966,28.9107 -13.5068,11.6434 -40.9568,34.4175 -40.9568,34.4175 l 8.2602,8.9485 c 0,0 25.5488,-23.8379 38.8917,-35.1058 16.9745,-14.3348 33.5614,-29.3872 52.3146,-41.301 11.6927,-7.4283 23.8758,-14.6943 37.1709,-18.5854 12.5119,-3.6619 25.8814,-4.9606 38.8917,-4.1301 11.8857,0.7587 23.6523,3.9675 34.7617,8.2602 7.0888,2.7391 13.9383,6.3803 19.9621,11.0136 5.9172,4.5513 10.7249,10.4281 15.4879,16.1762 7.5562,9.1189 14.0015,19.1105 20.6504,28.9106 17.8487,26.3079 51.6262,80.1928 51.6262,80.1928 l 28.5666,45.7752 72.6208,115.9869 50.5937,81.2252 64.0165,103.9408 39.5801,68.4908 20.6505,37.1709 -86.3879,55.7563 7.2277,11.0136 88.1087,-53.3471 36.4826,59.8864 62.9839,110.4801 46.8078,87.0762 16.8646,40.2684 5.5068,25.8131 -3.4418,16.1762 -8.2602,7.5719 -9.981,2.7534 -10.3253,-3.7859 -55.4121,-66.7699 -22.0272,-39.9243 -16.1762,-19.9621 -7.916,-9.2928 -24.0923,-17.8971 -7.2276,-9.6368 -15.1437,-22.3714 -30.6316,-37.5151 -57.133,-70.2116 -26.8456,-35.1058 -86.0437,-105.3175 -98.0898,-120.117 -84.3228,-104.2849 -58.5097,-74.6859 -97.0573,-117.7078 -30.8431,27.8772 124.0741,153.1597 130.3331,163.8368 30.9265,35.3446 115.6062,142.8509 101.2474,128.4923 37.5536,50.0714 112.2927,134.0148 83.5751,97.1976 135.4875,168.623 64.4302,90.5705 z"
     style="fill:#000000;stroke:#000000;stroke-width:1px;stroke-linecap:butt;stroke-linejoin:miter;stroke-opacity:1" />
  <path
     style="fill:#000000;stroke:#000000;stroke-width:1px;stroke-linecap:butt;stroke-linejoin:miter;stroke-opacity:1"
     d="m 2434.8214,3525 -28.2738,-17.8571 -32.1428,-44.9405 -35.7143,-49.4048 -27.6786,-35.7143 -81.8452,-97.619 -35.1191,-43.75 -17.2619,-5.3572 c 0,0 -5.5649,-6.7383 -8.3333,-10.119 -11.3479,-13.8576 -19.7005,-30.787 -33.9286,-41.6667 -3.8808,-2.9675 -8.6439,-4.806 -13.3928,-5.9524 -1.7386,-0.4197 -4.2179,-1.6762 -5.3572,-0.2976 -1.3029,1.5765 0.545,4.1376 1.4881,5.9524 4.0538,7.801 17.5778,11.1548 17.2619,19.9405 -0.096,2.664 -2.9892,5.6781 -5.6548,5.6547 -11.9969,-0.1053 -13.0063,-25.5957 -25,-25.8928 -17.541,-0.4345 -22.2734,29.0809 -38.3928,36.0119 -1.552,0.6673 -3.4969,0.9397 -5.0595,0.2976 -24.4312,-10.0395 -33.4888,-41.0985 -52.9762,-58.9286 -3.6596,-3.3484 -8.2451,-5.5802 -11.9048,-8.9285 -10.7287,-9.8158 -19.2019,-21.8502 -29.1667,-32.4405 -6.2014,-6.5907 -12.6246,-12.9703 -19.0476,-19.3452 -42.3757,-42.0581 -85.7323,-83.1164 -128.5714,-124.7024 -17.4677,-16.9567 -34.8836,-33.9668 -52.381,-50.8929 -45.6377,-44.1475 -91.536,-88.0249 -137.2023,-132.1428 -9.6374,-9.3106 -28.8691,-27.9762 -28.8691,-27.9762 L 1464.881,2620.2381 c 0,0 -43.1263,-49.3595 -67.262,-71.4286 -2.6071,-2.3838 -6.4257,-3.5743 -8.3333,-6.5476 -4.3527,-6.7845 -5.3063,-15.4587 -5.6547,-23.5119 -0.633,-14.634 2.3,-29.4341 6.5476,-43.4524 1.5572,-5.1392 3.9435,-10.0648 6.8452,-14.5833 10.1175,-15.7545 36.3095,-42.8572 36.3095,-42.8572 l 54.4643,-53.2738 13.0953,-12.7976 8.3333,9.5238 -18.1548,16.9643 -25.8928,27.6786 -19.9405,20.8333 c 0,0 -16.7175,17.8657 -23.5119,27.9762 -3.5642,5.3038 -6.605,11.0116 -8.9286,16.9643 -2.9487,7.5544 -5.1473,15.4777 -6.25,23.5119 -1.0388,7.5686 -1.2468,15.3364 -0.2976,22.9167 0.5232,4.1786 1.847,8.2401 3.2738,12.2023 2.1809,6.0563 4.672,12.0714 8.0357,17.5596 7.6753,12.523 27.381,34.5238 27.381,34.5238 l 41.369,43.75 51.4881,50 48.2143,49.4047 c 0,0 39.7114,41.2515 60.4167,61.0119 10.8237,10.3297 22.389,19.8578 33.3333,30.0596 22.0685,20.5713 43.6481,41.6639 65.1786,62.7976 15.6195,15.3316 30.9205,30.9843 46.4285,46.4286 12.0785,12.0289 24.1273,24.0882 36.3096,36.0119 8.6742,8.4901 26.1904,25.2976 26.1904,25.2976 l 11.012,8.9286 13.988,-7.4405 28.2739,-11.9048 26.4881,-10.119 19.9404,-10.1191 5.6548,-2.0833 6.25,11.3095 -14.881,8.631 -22.9166,9.5238 -17.8572,8.0357 -18.1547,9.2262 -10.7143,9.2262 8.0357,9.2262 17.5595,16.369 c 0,0 29.1313,29.9948 43.75,44.9405 11.2823,11.5346 22.3288,23.3085 33.9286,34.5238 8.3288,8.0527 16.7841,15.99 25.5952,23.5119 7.8951,6.7399 15.1339,14.6751 24.4048,19.3452 4.7713,2.4034 10.2584,3.0197 15.4762,4.1667 3.4407,0.7564 6.9635,2.4834 10.4166,1.7857 4.1541,-0.8394 7.3113,-4.3191 10.7143,-6.8452 5.8752,-4.3614 11.4854,-9.1191 16.6667,-14.2857 2.6897,-2.6821 6.5001,-4.9508 7.4405,-8.631 0.7033,-2.7524 -0.5192,-5.7904 -1.7857,-8.3333 -6.4905,-13.0322 -21.3702,-20.3824 -28.5715,-33.0357 -1.0862,-1.9086 -1.7075,-4.0864 -2.0833,-6.25 -0.7642,-4.3995 1.087,-9.1476 -0.2976,-13.3929 -2.0992,-6.4364 -7.6602,-11.1662 -11.6072,-16.6667 -9.9251,-13.8317 -28.3899,-24.1612 -30.3571,-41.0714 -0.1746,-1.501 0.2916,-3.941 1.7857,-4.1667 40.4315,-6.1063 53.2172,62.0983 79.4643,93.4524 43.1567,51.5537 128.2738,155.6548 128.2738,155.6548 l 92.2619,115.1786 z"
     id="path5228"
     inkscape:connector-curvature="0"
     sodipodi:nodetypes="ccccccccsssssssssssssssssccssssscccccccssssssccccssssscccccccccccccccsssssssssssssssssccc" />
</svg>
