<?xml version="1.0" encoding="UTF-8" standalone="no"?>
<!-- Created with Inkscape (http://www.inkscape.org/) -->

<svg
   xmlns:dc="http://purl.org/dc/elements/1.1/"
   xmlns:cc="http://creativecommons.org/ns#"
   xmlns:rdf="http://www.w3.org/1999/02/22-rdf-syntax-ns#"
   xmlns:svg="http://www.w3.org/2000/svg"
   xmlns="http://www.w3.org/2000/svg"
   xmlns:sodipodi="http://sodipodi.sourceforge.net/DTD/sodipodi-0.dtd"
   xmlns:inkscape="http://www.inkscape.org/namespaces/inkscape"
   id="svg2985"
   version="1.1"
   inkscape:version="0.48.4 r9939"
   width="5506"
   height="3600"
   sodipodi:docname="DeasIsland Boundaries wref.jpg">
  <metadata
     id="metadata2991">
    <rdf:RDF>
      <cc:Work
         rdf:about="">
        <dc:format>image/svg+xml</dc:format>
        <dc:type
           rdf:resource="http://purl.org/dc/dcmitype/StillImage" />
        <dc:title></dc:title>
      </cc:Work>
    </rdf:RDF>
  </metadata>
  <defs
     id="defs2989" />
  <sodipodi:namedview
     pagecolor="#ffffff"
     bordercolor="#666666"
     borderopacity="1"
     objecttolerance="10"
     gridtolerance="10"
     guidetolerance="10"
     inkscape:pageopacity="0"
     inkscape:pageshadow="2"
     inkscape:window-width="1600"
     inkscape:window-height="838"
     id="namedview2987"
     showgrid="false"
     inkscape:zoom="0.3"
     inkscape:cx="3660.6118"
     inkscape:cy="1276.9132"
     inkscape:window-x="-8"
     inkscape:window-y="-8"
     inkscape:window-maximized="1"
     inkscape:current-layer="svg2985" />
  <path
     style="fill:#666666;stroke:#000000;stroke-width:1px;stroke-linecap:butt;stroke-linejoin:miter;stroke-opacity:1"
     d="m 4289.7072,885.77036 c -6.89,13.41498 -11.1224,28.03838 -16.9651,41.94151 -6.2411,14.85126 -13.0158,29.47373 -19.3213,44.29776 -5.4581,12.83169 -10.333,25.91204 -16.0226,38.64277 -5.3322,11.9309 -9.6026,24.547 -16.9651,35.3439 -8.7041,12.7642 -21.3626,22.3365 -31.574,33.9302 -11.3527,12.8894 -20.9734,27.3103 -32.9877,39.5853 -7.866,8.0367 -17.3328,14.3635 -25.4476,22.1489 -11.5463,11.0777 -24.9876,21.0152 -32.9877,34.8727 -3.8515,6.6716 -2.7461,15.4772 -6.5976,22.1488 -4,6.9288 -8.382,14.9166 -13.8009,20.8025 -17.8571,19.396 -37.3484,36.3943 -55.4732,55.5405 -4.2762,4.5172 -10.1648,7.7629 -13.1951,13.1951 -14.6267,26.2203 -18.0845,57.7462 -20.7351,87.653 -0.75,8.4625 -0.3838,17.1444 1.4137,25.4477 3.8514,17.7907 11.1173,34.8928 19.7927,50.8953 3.5943,6.63 6.768,14.433 13.195,18.3788 26.0797,16.0114 59.8019,83.1048 63.0712,69.866 1.4312,-11.3468 53.0032,-69.5754 75.1813,-107.4018 13.3045,-22.6918 24.7589,-46.4398 36.0563,-70.1948 3.4179,-7.1868 6.0057,-14.7583 9.5894,-21.8639 8.0986,-16.0575 17.6141,-31.3654 26.8505,-46.7965 17.4921,-29.2238 37.989,-56.6729 54.0845,-86.6886 5.8408,-10.8922 12.1862,-21.8054 15.3431,-33.7549 8.3618,-31.6505 4.586,-65.3511 8.8223,-97.8123 2.4508,-18.7799 5.1321,-38.4411 6.2233,-57.3488 0.6787,-11.7608 1.9925,-22.17493 1.4482,-33.94276 -0.7745,-16.74386 1.1438,-33.76893 -1.9179,-50.2487 -2.9616,-15.94117 -7.8563,-22.75518 -12.8368,-38.18527 -1.7549,-5.43691 -3.659,-10.84361 -5.5831,-16.24821 0,0 -7.0737,2.70583 -8.6607,5.7958 z M 2795.6229,1813.9365 c 6.3822,-3.8394 10.9248,-10.2303 15.4281,-16.1628 25.4949,-33.5863 40.4747,-74.1839 64.6511,-108.7314 50.3934,-72.0111 110.9409,-136.3554 166.7705,-204.2387 81.2012,-98.7327 161.5844,-198.1649 244.6456,-295.338 138.326,-161.8272 285.6368,-315.88623 422.4362,-479.00597 56.5492,-67.42933 104.1821,-142.42515 164.5665,-206.44273 8.8054,-9.33521 17.5854,-19.21671 28.6522,-25.71351 7.814,-4.58723 16.8706,-6.84008 25.7135,-8.81606 41.595,-9.29458 85.3201,-5.52548 127.0982,-13.95876 9.266,-1.87042 18.9302,-3.47135 27.1828,-8.08139 5.4507,-3.04488 7.9061,-14.02106 13.9588,-12.48942 6.2781,1.58866 10.0191,12.79804 6.5742,18.28173 -2.8196,4.48842 -10.5995,0.70809 -15.8162,1.64752 -6.9215,1.24644 -13.6257,3.49062 -20.4292,5.27205 -7.036,1.84231 -13.9361,4.2803 -21.0882,5.60157 -26.6103,4.91594 -53.8997,5.0326 -80.7284,8.56709 -16.0945,2.12034 -32.6907,2.4941 -48.1075,7.57858 -5.412,1.78488 -10.6291,4.44811 -15.1572,7.90809 -11.1781,8.54129 -19.5296,20.27685 -28.6668,30.97334 -20.5228,24.02502 -39.0515,49.68438 -58.6517,74.46781 -26.6225,33.66271 -52.5457,67.8981 -80.0693,100.8281 -10.8803,13.01754 -22.3361,25.54366 -33.6094,38.22242 -32.0926,36.09362 -64.734,71.69634 -96.8741,107.74768 -42.0456,47.16232 -83.1869,95.13039 -125.5408,142.01605 -7.8155,8.6517 -15.9088,17.04971 -23.7243,25.70131 -31.3483,34.7021 -62.5923,69.5141 -92.92,105.1116 -30.872,36.2363 -60.4389,73.5646 -90.6135,110.3837 -24.7373,30.1844 -48.6401,61.0691 -74.1383,90.6135 -9.7027,11.2424 -20.2355,21.7483 -29.9848,32.9504 -23.5816,27.0957 -46.2948,51.3859 -69.1958,82.7054 -15.6448,21.3958 -43.0202,44.2517 -55.2757,73.4331 -10.4627,24.9126 43.7875,28.0115 47.3676,47.4947 0.4931,2.6833 -2.8773,7.5677 -5.272,6.2606 -32.6912,-17.8438 -61.9542,-51.6569 -58.3164,-38.8583 1.8547,6.5252 -14.3947,19.0636 -30.7314,35.6068 -15.3733,15.5677 -25.806,32.7099 -38.4643,50.3937 -3.3562,4.6886 -8.1791,6.0892 -11.868,10.5209 -13.2351,15.9001 -26.5208,31.7692 -39.2109,48.1075 -6.1177,7.8764 -12.0488,15.9011 -17.7932,24.0538 -6.4744,9.1889 -12.3955,18.7574 -18.7817,28.0078 -2.9088,4.2134 -6.195,8.1719 -8.8966,12.5211 -14.547,23.4183 -25.192,49.0821 -39.2109,72.8203 -2.0605,3.489 -3.832,7.2462 -6.5901,10.2147 -10.3021,11.0879 -36.2454,27.3488 -36.2454,27.3488 -57.7245,40.9881 -77.2287,79.6056 -111.7077,100.3419 l -32.6986,19.6656 c -18.8381,11.3296 -16.5859,21.7963 -41.564,34.6883 -14.6088,7.5401 -28.8228,15.9 -43.8265,22.6202 -14.4304,6.4634 -29.5319,11.3101 -44.2978,16.9651 -13.9475,5.3416 -27.5571,10.2329 -42.0088,14.0029 -14.4517,3.77 -45.0567,39.1348 -71.2442,66.0407 -15.2638,15.6825 -40.3006,42.3346 -54.513,58.9759 -7.1411,8.3615 -14.1019,16.9814 -19.7926,26.3902 -7.5635,12.5053 -13.1427,26.131 -18.8501,39.5852 -9.1041,21.4614 -16.8519,43.4836 -24.5051,65.5042 -7.5834,21.8197 -15.3975,43.6178 -21.2064,65.9754 -6.244,24.0323 -11.283,48.4377 -14.6089,73.0442 -1.4766,10.9246 -6.1151,22.6244 -2.3562,32.9877 2.0834,5.744 7.3877,10.2185 12.7238,13.195 9.6868,5.4034 21.5024,5.7557 32.5164,7.0688 6.709,0.7998 13.5084,0.585 20.2639,0.4713 24.856,-0.4182 49.6126,-5.0796 74.458,-4.2413 5.0629,0.1708 10.2968,0.2168 15.0801,1.885 11.9811,4.1786 22.1146,12.5255 32.5164,19.7926 10.538,7.3622 18.0973,19.591 30.1602,24.0339 13.4211,4.9431 28.5853,1.7394 42.884,1.4138 14.02,-0.3193 28.1008,-1.0406 41.9415,-3.2988 5.753,-0.9387 11.3289,-2.7542 16.9651,-4.2413 19.8623,-5.2405 59.3778,-16.4938 59.3778,-16.4938 0,0 13.8994,-0.6854 20.7352,-1.885 44.4703,-7.8043 87.6109,-21.9444 131.0083,-34.4015 14.7086,-4.2221 29.3451,-8.7206 43.8265,-13.6663 67.4026,-23.0194 133.3988,-49.9715 200.2824,-74.4579 13.4848,-4.9369 26.8282,-10.3038 40.5278,-14.6089 8.0701,-2.5361 16.6182,-3.539 24.5051,-6.5975 29.673,-11.5071 56.3741,-29.5639 84.8255,-43.8265 11.2421,-5.6356 22.8317,-10.5805 33.9302,-16.4939 13.7911,-7.3481 27.2891,-15.2604 40.5278,-23.5626 19.7471,-12.3837 38.4255,-26.4038 57.9641,-39.114 22.0669,-14.3549 45.7293,-26.3193 66.9179,-41.9415 19.1856,-14.1453 34.7634,-32.8472 54.194,-46.654 5.6225,-3.9952 11.2244,-8.6618 17.9076,-10.3676 6.0901,-1.5544 12.5843,-0.023 18.8502,0.4712 9.479,0.7482 18.7776,4.2261 28.2751,3.7701 6.9269,-0.3326 13.9849,-1.7687 20.2639,-4.7126 5.8883,-2.7607 10.6376,-7.5212 15.5513,-11.7813 16.1978,-14.0433 31.1374,-29.5185 45.7116,-45.2403 5.6063,-6.0477 13.9373,-10.8716 16.0226,-18.8501 1.8618,-7.1236 -1.5416,-14.8275 -4.2413,-21.6776 -6.3129,-16.0179 -14.7281,-32.0984 -27.3327,-43.8265 -9.3626,-8.7115 -21.9678,-13.3856 -33.9302,-17.9076 -13.7564,-5.2002 -28.8006,-6.1322 -42.884,-10.3676 -7.5184,-2.2611 -15.7294,-3.4914 -22.1489,-8.0113 -8.6667,-6.102 -13.9184,-16.0149 -20.2638,-24.5051 -5.5555,-7.4333 -11.2586,-14.864 -15.5514,-23.0914 -10.6742,-20.4575 -14.7005,-43.9012 -24.9764,-64.5616 -7.9788,-16.0419 -17.77,-31.198 -28.2752,-45.7116 -18.8922,-26.1009 -39.2699,-51.3562 -62.2053,-73.9867 -4.7676,-4.7042 -9.0093,-11.2881 -15.5514,-12.7238 -4.2797,-0.9392 -8.9647,1.0479 -12.7238,3.2988 -7.153,4.2831 -8.642,17.8924 -16.9651,18.3788 -2.8915,0.169 -6.3504,-2.7691 -6.5975,-5.655 -0.5045,-5.8916 10.2854,-7.8426 11.31,-13.6663 0.4047,-2.2999 -4.4669,-5.5984 -2.3562,-6.5976 6.6038,-3.1263 31.6316,-13.3317 35.3439,-8.4825 11.7438,15.3403 47.4698,62.9361 73.0442,93.308 9.8149,11.6561 20.3338,23.0052 27.8039,36.2865 5.949,10.577 8.9048,22.5787 13.1951,33.9302 4.6736,12.3657 8.1755,25.2039 13.6663,37.229 5.6656,12.4078 11.1568,25.257 19.7927,35.8152 5.2211,6.3832 11.8026,11.7403 18.8501,16.0226 7.1048,4.3171 15.169,6.9047 23.0914,9.4251 13.217,4.2048 27.5605,4.5036 40.5277,9.425 9.8573,3.7411 19.5034,8.579 27.8039,15.0801 7.5286,5.8965 13.3278,13.755 19.3214,21.2064 7.84,9.7469 11.6052,38.0486 21.6776,30.6314 34.2688,-25.2351 75.3255,-70.694 114.0432,-104.1469 16.2389,-14.0308 31.6298,-29.0153 47.5965,-43.3552 20.4495,-18.366 41.5565,-36.0012 61.7342,-54.6654 18.9203,-17.501 36.7886,-36.1131 55.6078,-53.7228 4.9534,-4.635 10.191,-8.9635 15.0801,-13.6663 15.531,-14.9393 30.2671,-30.6845 45.2403,-46.1828 15.9804,-16.5407 32.3784,-32.7082 47.5965,-49.9528 22.1608,-25.1118 40.4603,-46.1693 53.5208,-71.6977 50.9199,-63.8039 46.4658,-48.2836 44.4997,-69.3416 -15.0594,-13.3434 -17.2114,-26.1812 -27.8038,-41.3355 -8.3558,-11.9545 -19.9765,-21.3337 -28.7465,-32.9877 -5.3971,-7.1719 -10.5287,-14.6253 -14.6088,-22.6202 -6.5107,-12.7578 -12.3064,-26.1057 -15.5513,-40.0564 -1.6432,-7.0646 -1.5706,-14.4314 -1.8851,-21.6777 -0.2316,-5.3358 -0.5766,-10.7129 0,-16.0226 1.5801,-14.5503 2.0397,-27.9626 5.3858,-42.2108 3.2576,-13.8715 8.3779,-29.2329 14.4069,-42.1434 1.8081,-3.8718 4.7794,-7.1058 7.54,-10.3676 22.7481,-26.8783 50.6582,-39.3279 67.9277,-70.0147 4.3723,-7.7694 7.6504,-24.8597 11.9833,-32.6511 8.2611,-14.8553 24.3555,-23.0448 36.0172,-35.4113 19.5235,-20.7034 38.6013,-41.8228 57.9641,-62.6766 8.6212,-9.2851 18.2805,-17.6949 25.9189,-27.8039 9.5172,-12.5955 17.5233,-26.3688 24.5052,-40.5278 4.7734,-9.68027 7.7659,-20.1417 11.7813,-30.16015 10.299,-25.69631 20.3687,-51.4999 31.5739,-76.81421 l 15.6819,-35.22647 c -1.8346,-5.4285 -3.5598,-10.88301 -5.0463,-16.39164 -1.4865,-5.50863 -2.7342,-11.07138 -3.614,-16.71637 -2.8157,-18.06759 -3.5721,-44.41025 -3.6571,-62.69572 -0.1274,-27.36189 -3.4669,-30.36695 -3.7449,-57.72773 -0.104,-10.23141 1.0492,-45.0769 3.3614,-55.04417 0.7496,-3.23115 1.9647,-6.81182 4.6029,-8.82229 5.3058,-4.04329 12.9894,-3.08209 19.5625,-4.21936 10.6733,-1.84667 21.5279,-2.48806 32.2205,-4.21935 11.3123,-1.83163 22.6209,-3.80845 33.7549,-6.52083 13.6003,-3.3132 27.3227,-6.58356 40.2756,-11.89091 9.7921,-4.01224 19.2958,-8.94295 28.0012,-14.95954 7.8268,-5.40932 15.0291,-11.8025 21.4804,-18.79531 6.6932,-7.255 11.9498,-15.71933 17.6446,-23.78183 5.6876,-8.05234 11.2958,-16.17224 16.4938,-24.54899 5.4352,-8.75904 11.5161,-17.27882 15.3431,-26.85045 3.3732,-8.43675 2.5533,-18.29279 6.5209,-26.46687 4.177,-8.60538 9.6963,-17.30897 17.6445,-22.6311 10.6972,-7.16284 26.5333,-3.15895 37.2071,-10.3566 1.7387,-1.17244 3.2814,-2.96406 3.8358,-4.98651 2.2472,-8.19807 -3.4086,-16.82247 -3.0686,-25.31614 0.308,-7.69199 2.3738,-15.26273 4.6029,-22.6311 3.2382,-10.70405 7.4687,-21.16363 12.6581,-31.06981 6.7307,-12.84835 12.9028,-26.84667 23.7818,-36.4399 3.9459,-3.47954 9.3274,-4.90208 14.1924,-6.9044 5.8703,-2.41609 11.3036,-5.20273 16.7896,-2.00878 2.3621,1.37524 2.548,0.76947 1.1214,3.10098 -4.5191,7.38577 -16.2312,3.08664 -23.2811,8.11367 -12.2471,8.733 -19.3359,23.37991 -26.0833,36.82348 -7.0555,14.05753 -13.104,29.21887 -14.576,44.87861 -1.3269,14.11575 7.4456,28.78522 -2.0611,39.30364 -3.3447,3.70062 -4.648,5.15104 -9.5925,5.80912 -10.1852,1.35557 -18.7022,0.16429 -27.4713,5.51952 -7.4089,4.5246 -13.9788,11.11635 -18.0282,18.79532 -4.0822,7.74117 -2.1945,17.54461 -5.3701,25.69971 -4.2649,10.95223 -11.7793,20.34814 -18.0281,30.30266 -5.298,8.43976 -10.673,16.84459 -16.4939,24.93256 -9.0988,12.6425 -17.0992,26.50589 -28.7683,36.82348 -6.7023,5.92609 -15.0116,9.80996 -23.0147,13.8088 -14.5703,7.28024 -29.7748,13.36822 -45.2622,18.41174 -17.6623,5.7518 -35.3639,8.21921 -53.6717,11.36099 -9.8111,1.68368 -34.3642,-3.39337 -43.4027,7.90571 -10.2146,12.76923 -2.3705,34.19809 -4.8831,55.67623 -2.4154,20.64628 1.6385,43.1986 4.3208,62.49503 2.4913,17.92278 -3.3144,33.33684 1.0922,49.74804 31.471,117.20683 25.4044,74.49653 32.8706,107.78539 5.4008,25.23101 5.642,48.60385 5.558,74.40625 -0.1311,40.0759 -5.5497,82.5593 -10.1609,122.3692 -1.7518,15.1243 -1.5358,30.7487 -6.1373,45.2622 -5.5306,17.4442 -16.2935,32.7933 -25.3161,48.7144 -17.9153,31.6131 -39.1463,61.2647 -57.1531,92.8258 -25.1399,44.0634 -44.5705,91.3104 -70.9619,134.6359 -17.4374,28.6261 -38.0494,55.1972 -57.5367,82.4692 -30.2119,42.2808 -59.8408,85.0406 -92.0587,125.8136 -11.9772,15.1576 -24.5297,29.8769 -37.5907,44.1114 -29.1571,31.7767 -59.8232,62.165 -90.9079,92.0587 -38.8136,37.3265 -79.6502,72.4912 -119.2927,108.9361 -12.056,11.0835 -23.9642,22.3274 -36.0564,33.3713 -20.5891,18.8042 -41.645,37.0952 -62.1396,56.0024 -24.7982,22.8774 -44.217,53.0235 -74.0305,69.044 -7.1018,3.8162 -0.8533,16.5677 -4.4804,23.7679 -4.054,8.0477 -12.1423,13.3202 -18.3668,19.8361 -16.3874,17.1547 -30.1367,37.6555 -49.9576,50.6924 -3.9515,2.599 -8.5966,4.1653 -13.2241,5.1427 -15.8302,3.3436 -32.3819,3.7397 -48.4883,2.204 -6.2677,-0.5976 -12.1194,-5.1897 -18.3668,-4.4081 -5.2174,0.6528 -9.841,4.0771 -13.9588,7.3468 -9.3816,7.4496 -23.5905,15.2035 -23.5095,27.1828 0.08,11.7952 16.6058,16.884 23.5095,26.4482 16.7323,23.1804 36.6033,49.6943 56.5697,66.8551 -0.6997,4.2263 -7.1804,8.5116 -11.0201,6.6121 -17.1881,-8.5031 -26.2882,-38.663 -44.8149,-53.6311 -12.1257,-9.7966 -18.8466,-25.9642 -32.3256,-33.7949 -2.6192,-1.5216 -6.203,-3.7363 -8.816,-2.204 -20.223,11.8595 -34.3856,23.66 -51.4271,33.7949 -10.4501,6.2148 -20.1917,13.5546 -30.1215,20.5708 -12.8811,9.1015 -25.0157,19.2654 -38.2029,27.9175 -13.7659,9.0317 -28.2179,16.9846 -42.611,24.9789 -14.2684,7.925 -28.9021,15.1735 -43.3456,22.7748 -31.602,16.6314 -61.1546,37.9112 -94.7726,49.9577 -8.0027,2.8676 -16.787,2.8715 -24.9789,5.1427 -9.2548,2.5659 -18.1516,6.2837 -27.1828,9.5507 -44.2298,16.0002 -88.2206,32.655 -132.2409,49.223 -27.7108,10.4295 -54.7589,22.7539 -83.0179,31.5909 -23.3554,7.3036 -47.5742,11.4963 -71.2632,17.6321 -32.6646,8.4607 -65.105,17.7656 -97.7113,26.4482 -20.5486,5.4718 -40.8561,12.0158 -61.7124,16.1628 -24.7289,4.917 -49.7716,8.7284 -74.9365,10.2854 -19.0666,1.1796 -39.2049,5.3754 -57.3044,-0.7347 -8.9563,-3.0235 -15.0068,-11.5108 -22.7748,-16.8975 -12.2244,-8.4769 -23.7464,-18.4993 -37.4683,-24.2441 -6.2479,-2.6157 -13.0811,-3.9095 -19.8361,-4.4081 -27.423,-2.0243 -54.9388,8.7764 -82.2832,5.8774 -15.7221,-1.6668 -31.4268,-6.1173 -45.5497,-13.2241 -6.869,-3.4566 -14.9498,-7.0699 -18.3668,-13.9587 -1.7411,-3.5102 -0.3347,-7.8509 0,-11.7548 2.335,-27.237 7.4728,-54.2576 13.9588,-80.8139 6.7071,-27.4615 16.3371,-54.1454 25.7135,-80.8138 12.1884,-34.6664 21.9712,-70.6518 39.6723,-102.8541 7.3376,-13.3487 18.565,-24.1732 27.1828,-36.7336 28.9423,-42.1834 80.1755,-78.6592 108.2705,-115.6404 -16.41,1.3996 -42.9843,13.9608 -61.4842,15.8695 -22.897,2.3623 -43.3959,11.4466 -68.8264,20.4264 -28.1378,9.9358 -54.6144,24.0889 -82.2833,35.2642 -26.2311,10.5946 -52.3742,21.5823 -79.3445,30.1216 -20.7248,6.5619 -41.6773,12.9798 -63.1818,16.1628 -27.8852,4.1274 -56.3241,4.8808 -84.4872,3.6733 -18.9975,-0.8145 -37.6451,-5.496 -56.5697,-7.3467 -35.5961,-3.481 -67.0464,-12.6519 -97.6415,-11.3695 -32.9562,1.3815 -67.7889,-10.3907 -93.443,-2.4137 -38.3447,11.9232 -60.4243,36.869 -91.7641,55.6595 -31.6653,18.9857 -64.5867,35.855 -97.7113,52.1617 -17.6016,8.6649 -37.0322,13.7859 -53.6311,24.2441 -10.2932,6.4853 -18.4063,15.9236 -27.9175,23.5095 -24.4679,19.515 -49.0821,38.9328 -74.9365,56.5697 -27.0633,18.4615 -58.6564,30.3693 -83.7526,51.4271 -22.0602,18.5103 -35.5473,45.7856 -57.3044,64.6511 -73.7157,63.9186 -159.6413,114.7651 -228.4828,177.0558 -22.2703,20.1511 -50.19899,33.1717 -73.46724,52.1617 -27.78618,22.6772 -55.07235,46.4059 -78.60987,73.4672 -14.53562,16.7117 -26.21551,35.7413 -38.20292,54.3657 -18.53664,28.7997 -35.50125,59.6337 -48.48833,90.3646 -13.92308,32.9458 -31.53231,74.2165 -47.01899,90.3646 -4.49728,1.4013 -11.18965,-2.0843 -12.48941,-6.612 -15.39937,12.4304 27.42173,-33.8059 40.40694,-69.7938 14.10366,-39.0876 41.57927,-71.9829 60.97774,-108.7314 9.32137,-17.6584 21.03645,-20.859 15.77574,-39.6706 -15.27273,-7.3817 -24.38473,1.6681 -28.26516,4.4063 -212.98398,150.2898 -122.59319,90.8964 -180.72922,132.2409 -11.42498,8.1251 -10.63378,25.1803 -13.95876,30.1216 -3.13735,1.5656 -8.84398,0.9922 -10.2854,-2.2041 -3.51569,-9.2515 10.42182,-24.2737 19.83613,-35.2642 18.67821,-21.8053 52.40691,-44.2735 80.07921,-64.6511 31.88558,-23.4802 64.2548,-46.7258 99.18067,-65.3858 17.81144,-9.5162 38.76946,-12.7127 55.83505,-23.5095 34.14938,-21.6051 57.87599,-56.7837 90.36461,-80.8139 87.69831,-64.8659 87.19501,-53.6988 174.66561,-127.5784 7.3632,-6.2192 107.0083,-82.0004 114.7951,-87.6803 10.0728,-7.3474 18.0169,-17.2634 26.4481,-26.4482 8.2271,-8.9624 15.3923,-18.8555 23.5095,-27.9176 4.7384,-5.29 9.2698,-10.8434 14.6935,-15.4281 9.0257,-7.6295 19.1821,-13.8748 29.3868,-19.8361 15.1304,-8.8388 32.0942,-14.3278 47.019,-23.5095 10.1371,-6.2363 19.1357,-14.1579 28.6522,-21.3055 14.2553,-10.7068 28.9431,-20.8783 42.611,-32.3255 9.9645,-8.3455 17.8566,-19.2098 28.6522,-26.4482 16.3798,-10.9826 35.8925,-16.3614 53.631,-24.9788 19.9976,-9.7149 39.8227,-19.7892 59.5084,-30.1216 14.0694,-7.3846 28.2314,-14.6325 41.8763,-22.7748 23.098,-13.7832 10.9601,-8.1064 32.0342,-24.821 6.1067,-4.8435 45.4617,-31.9764 52.453,-35.4221 8.6676,-4.2719 19.0172,-3.6712 28.6522,-4.408 11.2322,-0.859 22.76,2.265 33.7949,0 l 44.2576,-28.1804 74.2223,-49.9667 59.6689,-40.2644 c 0,0 20.6963,-16.8999 29.1068,-27.1663 11.3188,-13.8165 16.0366,-32.463 28.1366,-45.6007 18.0981,-19.6501 42.3134,-32.6908 64.5201,-47.541 27.0177,-18.0675 53.4077,-38.0224 83.4394,-50.4518 18.1554,-7.5141 37.9776,-10.2072 57.2434,-14.0683 12.3558,-2.4763 24.7715,-5.1243 37.3537,-5.8213 14.7068,-0.8146 29.5388,0.043 44.1453,1.9404 16.5758,2.1536 33.6357,4.0813 48.9964,10.6725 10.0567,4.3153 17.7152,12.9176 27.1664,18.4343 19.7985,11.5563 39.8898,23.2277 61.6093,30.5621 13.7313,4.6369 28.6203,4.7696 42.69,8.247 19.5168,4.8237 38.8969,10.4252 57.7285,17.464 22.5771,8.4388 42.0022,27.0975 65.9754,29.5919 7.0586,0.7344 20.8032,-4.5272 20.8032,-4.5272 2.162,4.3849 99.9412,-93.3996 148.4168,-125.8449 z m -957.7078,323.9216 c 1.0244,3.1362 45.7748,8.8617 49.0298,9.4006 32.3342,5.3535 17.6527,-3.1009 42.9885,3.6209 14.1789,3.7618 32.7406,7.0999 47.2493,9.2656 23.1977,3.4627 42.1797,5.8303 65.6034,4.624 20.7203,-1.0671 41.4458,-3.8989 61.6349,-8.681 25.5551,-6.0531 50.0123,-16.0988 74.6564,-25.1748 43.868,-16.1559 85.234,-39.7176 129.2444,-55.4817 18.0063,-6.4497 36.7517,-11.2536 55.1752,-16.3917 32.112,-8.9557 64.3013,-13.6576 97.2269,-23.4387 66.087,-19.6322 59.1176,-22.873 109.4021,-42.5538 l 28.1403,-15.7512 13.5832,-5.8213 c 0,0 8.878,-15.3377 3.3958,-18.9194 -17.1193,-11.1845 -50.9903,-26.7476 -50.4518,-27.1664 0,0 -48.0295,-16.4129 -72.767,-21.8301 -10.209,-2.2356 -20.9276,-1.7556 -31.0472,-4.366 -11.3991,-2.9405 -22.3852,-7.4969 -32.9877,-12.6129 -23.1786,-11.1844 -42.818,-29.1271 -66.4605,-39.2942 -11.8961,-5.1158 -24.5294,-8.8764 -37.3537,-10.6725 -13.7722,-1.9289 -41.7198,0 -41.7198,0 0,0 -38.7704,4.333 -57.7285,8.732 -12.5542,2.913 -25.0432,6.519 -36.8686,11.6428 -15.1466,6.5628 -43.175,24.2556 -43.175,24.2556 0,0 -39.6733,24.424 -58.6987,37.8389 -15.1726,10.6983 -31.71,20.173 -44.1453,33.9579 -5.9818,6.631 -14.0683,22.8003 -14.0683,22.8003 0,0 -8.7516,18.9343 -15.5236,26.6812 -13.3477,15.2693 -48.0262,37.3537 -48.0262,37.3537 0,0 -38.6764,23.4823 -57.2434,36.3835 -10.9955,7.6402 -20.7763,16.9819 -32.0175,24.2557 -11.6043,7.5087 -36.3835,19.8896 -36.3835,19.8896 0,0 -8.92,7.5505 -9.7022,11.1577 -1.0678,4.9244 9.0383,6.2957 9.0383,6.2957"
     id="path2995"
     inkscape:connector-curvature="0"
     sodipodi:nodetypes="ssssssssssssssssscssssssssssscscssssssscccsssssssssssssssssssssccsscssccsssssssssssssssssssscsssssssssssssssssssssssssssssscsssssssssssssssssssssssccssssssssssssssssssccsssssssssssssssssssssssssssssssssssssssssccssssssssssssssssssssssssssssssssssssssssssssssssssssssssssssssssssssssssssssssssssssssssssssssssssssssssssssssssssssssaaaaaaassssssccccccccccccsccscssssscsscsscscsscsc" />
</svg>
